Whale Wars - S05E008 - Target Acquired.mp4

No commercials and audio is in sync.


I bought the episode off of Amazon Prime Videos..removed the DRM..

Sorry, for the large file size...1.3gb...but I set the drm remover software to the highest quality setting to get the best picture...will have to due until a the regular sources are worked out.

This is my first torrent upload to this site...so if it is not working right....then I screwed up something...


General
Complete name                            : C:UsersNate ThibodeauDesktopWhale Wars - S05E008 - Target Acquired.mp4
Format                                   : MPEG-4
Format profile                           : Base Media
Codec ID                                 : isom
File size                                : 1.26 GiB
Duration                                 : 42mn 20s
Overall bit rate                         : 4 263 Kbps
Encoded date                             : UTC 2012-07-22 08:12:40
Tagged date                              : UTC 2012-07-22 08:12:40

Video
ID                                       : 2
Format                                   : AVC
Format/Info                              : Advanced Video Codec
Format profile                           : Baseline@L3.0
Format settings, CABAC                   : No
Format settings, ReFrames                : 1 frame
Format settings, GOP                     : M=1, N=25
Muxing mode                              : Container profile=Baseline@4.1
Codec ID                                 : avc1
Codec ID/Info                            : Advanced Video Coding
Duration                                 : 42mn 20s
Bit rate                                 : 4 130 Kbps
Width                                    : 640 pixels
Height                                   : 360 pixels
Display aspect ratio                     : 16:9
Frame rate mode                          : Constant
Frame rate                               : 29.970 fps
Original frame rate                      : 29.000 fps
Color space                              : YUV
Chroma subsampling                       : 4:2:0
Bit depth                                : 8 bits
Scan type                                : Progressive
Bits/(Pixel*Frame)                       : 0.598
Stream size                              : 1.22 GiB (97%)
Language                                 : English

Audio
ID                                       : 1
Format                                   : AAC
Format/Info                              : Advanced Audio Codec
Format profile                           : LC
Codec ID                                 : 40
Duration                                 : 42mn 19s
Bit rate mode                            : Constant
Bit rate                                 : 128 Kbps
Channel(s)                               : 2 channels
Channel positions                        : Front: L R
Sampling rate                            : 44.1 KHz
Compression mode                         : Lossy
Stream size                              : 38.8 MiB (3%)
Language                                 : English
